<svg width="562" height="562" viewBox="0 0 562 562" fill="none" xmlns="http://www.w3.org/2000/svg">
<path d="M280.726 40.1037C413.618 40.1037 521.348 147.834 521.348 280.726H40.1037C40.1037 147.834 147.834 40.1037 280.726 40.1037Z" fill="#2D6A4F"/>
<path d="M280.726 521.348C147.834 521.348 40.1037 413.618 40.1037 280.726H521.348C521.348 413.618 413.618 521.348 280.726 521.348Z" fill="#F9F9F9"/>
<path d="M280.726 280.726C280.726 347.172 226.861 401.037 160.415 401.037C93.9688 401.037 40.1037 347.172 40.1037 280.726C40.1037 214.28 93.9688 160.415 160.415 160.415C226.861 160.415 280.726 214.28 280.726 280.726Z" fill="#2D6A4F"/>
<path d="M521.348 280.726C521.348 347.172 467.483 401.037 401.037 401.037C334.591 401.037 280.726 347.172 280.726 280.726C280.726 214.28 334.591 160.415 401.037 160.415C467.483 160.415 521.348 214.28 521.348 280.726Z" fill="#F9F9F9"/>
<path fill-rule="evenodd" clip-rule="evenodd" d="M280.726 0C435.767 0 561.452 125.685 561.452 280.726C561.452 435.767 435.767 561.452 280.726 561.452C125.685 561.452 0 435.767 0 280.726C0 125.685 125.685 0 280.726 0ZM279.603 26.9494C140.066 26.9495 26.9495 140.066 26.9494 279.603C26.9494 419.139 140.066 532.256 279.603 532.256C419.139 532.256 532.256 419.139 532.256 279.603C532.256 140.066 419.139 26.9494 279.603 26.9494Z" fill="#2D6A4F"/>
</svg>
